<svg width="16" height="17" viewBox="0 0 16 17" fill="none" xmlns="http://www.w3.org/2000/svg">
<path fill-rule="evenodd" clip-rule="evenodd" d="M8 16.7529C12.4183 16.7529 16 13.1712 16 8.75293C16 4.33465 12.4183 0.75293 8 0.75293C3.58172 0.75293 0 4.33465 0 8.75293C0 13.1712 3.58172 16.7529 8 16.7529ZM6.70711 6.04582C6.31658 5.6553 5.68342 5.6553 5.29289 6.04582C4.90237 6.43635 4.90237 7.06951 5.29289 7.46004L6.58579 8.75293L5.29289 10.0458C4.90237 10.4363 4.90237 11.0695 5.29289 11.46C5.68342 11.8506 6.31658 11.8506 6.70711 11.46L8 10.1671L9.29289 11.46C9.68342 11.8506 10.3166 11.8506 10.7071 11.46C11.0976 11.0695 11.0976 10.4363 10.7071 10.0458L9.41421 8.75293L10.7071 7.46004C11.0976 7.06951 11.0976 6.43635 10.7071 6.04582C10.3166 5.6553 9.68342 5.6553 9.29289 6.04582L8 7.33872L6.70711 6.04582Z" fill="#F87171"/>
</svg>
