<svg width="16" height="17" viewBox="0 0 16 17" fill="none" xmlns="http://www.w3.org/2000/svg">
<path fill-rule="evenodd" clip-rule="evenodd" d="M8 16.7529C12.4183 16.7529 16 13.1712 16 8.75293C16 4.33465 12.4183 0.75293 8 0.75293C3.58172 0.75293 0 4.33465 0 8.75293C0 13.1712 3.58172 16.7529 8 16.7529ZM11.7071 7.46004C12.0976 7.06951 12.0976 6.43635 11.7071 6.04582C11.3166 5.6553 10.6834 5.6553 10.2929 6.04582L7 9.33872L5.70711 8.04582C5.31658 7.6553 4.68342 7.6553 4.29289 8.04582C3.90237 8.43635 3.90237 9.06951 4.29289 9.46004L6.29289 11.46C6.68342 11.8506 7.31658 11.8506 7.70711 11.46L11.7071 7.46004Z" fill="#38BDF8"/>
</svg>
