<svg viewBox="0 0 12 13" fill="none" xmlns="http://www.w3.org/2000/svg">
<path fill-rule="evenodd" clip-rule="evenodd" d="M0.292893 1.04582C0.683417 0.655299 1.31658 0.655299 1.70711 1.04582L6 5.33872L10.2929 1.04582C10.6834 0.655299 11.3166 0.655299 11.7071 1.04582C12.0976 1.43635 12.0976 2.06951 11.7071 2.46004L7.41421 6.75293L11.7071 11.0458C12.0976 11.4363 12.0976 12.0695 11.7071 12.46C11.3166 12.8506 10.6834 12.8506 10.2929 12.46L6 8.16714L1.70711 12.46C1.31658 12.8506 0.683417 12.8506 0.292893 12.46C-0.0976311 12.0695 -0.0976311 11.4363 0.292893 11.0458L4.58579 6.75293L0.292893 2.46004C-0.0976311 2.06951 -0.0976311 1.43635 0.292893 1.04582Z" fill="#9CA3AF"/>
</svg>
